<?xml version="1.0" standalone="no"?>
<!DOCTYPE svg PUBLIC "-//W3C//DTD SVG 20010904//EN"
 "http://www.w3.org/TR/2001/REC-SVG-20010904/DTD/svg10.dtd">
<svg version="1.0" xmlns="http://www.w3.org/2000/svg"
 width="700.000000pt" height="700.000000pt" viewBox="0 0 700.000000 700.000000"
 preserveAspectRatio="xMidYMid meet">
<metadata>
Created by potrace 1.14, written by Peter Selinger 2001-2017
</metadata>
<g transform="translate(0.000000,700.000000) scale(0.100000,-0.100000)"
fill="#000000" stroke="none">
<path d="M160 6807 c-4 -329 1 -5610 5 -5652 17 -179 81 -356 185 -511 62 -93
200 -233 286 -291 69 -47 215 -123 236 -123 8 0 18 -4 23 -9 11 -9 97 -33 185
-53 42 -9 617 -12 2353 -13 l2297 -2 0 24 c0 20 5 23 43 24 156 2 352 59 502
144 305 174 506 469 555 815 7 50 11 580 11 1595 0 836 -1 1532 -1 1548 l0 27
-835 0 -835 0 -2 1250 -3 1249 -350 -262 c-193 -144 -360 -269 -372 -277 -12
-8 -83 -62 -157 -119 -96 -72 -140 -100 -149 -94 -39 31 -691 520 -707 531
-15 11 -23 11 -42 1 -13 -6 -25 -15 -28 -18 -3 -3 -52 -41 -110 -84 -58 -43
-204 -153 -325 -244 -121 -91 -230 -172 -242 -180 -21 -14 -31 -8 -205 124
-101 76 -185 140 -188 143 -13 13 -360 270 -365 270 -5 0 -150 -106 -558 -408
-62 -45 -131 -96 -155 -112 l-43 -30 -252 192 c-139 105 -304 231 -367 280
-63 48 -177 135 -252 193 l-138 105 0 -33z m2132 -1156 l371 -280 76 56 c42
31 78 59 81 63 3 4 12 11 21 16 9 5 32 21 50 36 19 15 63 48 99 75 36 26 72
53 80 60 8 7 74 55 145 108 72 53 144 107 161 120 l30 23 240 -179 c131 -99
246 -185 254 -192 9 -7 68 -51 132 -99 l116 -87 227 170 c125 94 229 168 232
165 3 -3 6 -1033 7 -2288 1 -1256 5 -2301 10 -2323 21 -103 51 -198 90 -288
l44 -97 -1777 0 c-1956 0 -1825 -4 -1961 62 -85 41 -196 150 -239 236 -69 138
-64 -56 -65 2440 -1 1240 2 2256 5 2258 3 2 15 -4 25 -14 10 -9 53 -43 94 -74
41 -31 131 -99 200 -152 72 -54 129 -91 135 -87 13 10 174 128 280 206 44 32
84 62 90 67 19 16 370 276 373 277 2 1 170 -125 374 -278z m3979 -1883 c20 -8
20 -2494 -1 -2578 -62 -258 -289 -436 -550 -432 -146 2 -277 59 -386 167 -78
77 -133 175 -153 273 -8 37 -11 437 -11 1312 l0 1259 33 3 c56 5 1053 2 1068
-4z"/>
<path d="M1279 4606 c-1 -1 -3 -126 -4 -279 l-1 -277 695 2 696 3 0 275 0 275
-693 1 c-380 0 -693 0 -693 0z"/>
<path d="M1309 3490 l-35 -5 -1 -272 c0 -190 3 -273 11 -276 10 -3 2753 -1
2766 2 3 0 6 125 6 276 l-1 275 -65 1 c-395 3 -2654 3 -2681 -1z"/>
<path d="M1273 2100 l0 -280 1391 3 1391 2 0 275 0 275 -1391 3 -1391 2 0
-280z"/>
</g>
</svg>
